<svg xmlns="http://www.w3.org/2000/svg" fill="none" viewBox="0 0 50 24"><path fill="#fff" d="M1.137 0c-.15-.003-.3.021-.439.07C.558.12.432.195.326.288A.98.98 0 0 0 .08.614.877.877 0 0 0 0 1v2c0 .265.12.52.333.707.213.188.502.293.804.293h47.726c.15.003.3-.021.439-.07.14-.05.266-.123.372-.217a.98.98 0 0 0 .246-.327A.877.877 0 0 0 50 3V1c0-.265-.12-.52-.333-.707A1.22 1.22 0 0 0 48.863 0H1.137zm0 10a1.25 1.25 0 0 0-.439.07c-.14.05-.266.123-.372.217a.98.98 0 0 0-.246.327A.877.877 0 0 0 0 11v2c0 .265.12.52.333.707.213.188.502.293.804.293h47.726c.15.003.3-.021.439-.07.14-.05.266-.123.372-.217a.98.98 0 0 0 .246-.327A.877.877 0 0 0 50 13v-2c0-.265-.12-.52-.333-.707a1.22 1.22 0 0 0-.804-.293H1.137zm0 10c-.15-.003-.3.021-.439.07-.14.05-.266.123-.372.217a.98.98 0 0 0-.246.327A.877.877 0 0 0 0 21v2c0 .265.12.52.333.707.213.187.502.293.804.293h47.726c.15.003.3-.021.439-.07.14-.05.266-.124.372-.217a.98.98 0 0 0 .246-.327A.877.877 0 0 0 50 23v-2c0-.265-.12-.52-.333-.707a1.22 1.22 0 0 0-.804-.293H1.137z"/></svg>