<svg xmlns="http://www.w3.org/2000/svg" fill="none" viewBox="0 0 298 345"><path fill="#DEDEDE" d="M264.586 102.035l5.35-5.359c7.72-7.718 9.13-18.935 3.13-24.924-6-5.988-17.22-4.599-24.93 3.12l-5.39 5.388a148.207 148.207 0 0 0-74.73-31.972V38.7h7.66c10.91 0 19.84-8.708 19.84-19.345 0-10.637-8.93-19.355-19.84-19.355h-53.32c-10.91 0-19.84 8.708-19.84 19.355 0 10.648 8.93 19.345 19.84 19.345h7.66v9.588a149.014 149.014 0 0 0-86.459 42.5 148.931 148.931 0 0 0-22.943 180.848 148.988 148.988 0 0 0 73.11 62.734 149.035 149.035 0 0 0 96.22 4.896 149.01 149.01 0 0 0 79.102-54.989 148.935 148.935 0 0 0-4.46-182.242zm-115.57 204.149c-21.79 0-43.09-6.46-61.208-18.563a110.151 110.151 0 0 1-40.576-49.432 110.118 110.118 0 0 1 23.886-120.034 110.18 110.18 0 0 1 56.411-30.141 110.198 110.198 0 0 1 63.655 6.272 110.162 110.162 0 0 1 49.44 40.571 110.117 110.117 0 0 1-13.709 139.07 110.183 110.183 0 0 1-77.899 32.257z"/></svg>